<?xml version="1.0" standalone="no"?>
<!DOCTYPE svg PUBLIC "-//W3C//DTD SVG 20010904//EN"
 "http://www.w3.org/TR/2001/REC-SVG-20010904/DTD/svg10.dtd">
<svg version="1.0" xmlns="http://www.w3.org/2000/svg"
 width="1000.000000pt" height="1000.000000pt" viewBox="0 0 1000.000000 1000.000000"
 preserveAspectRatio="xMidYMid meet">
<metadata>
Created by potrace 1.11, written by Peter Selinger 2001-2013
</metadata>
<g transform="translate(0.000000,1000.000000) scale(0.100000,-0.100000)"
fill="#000000" stroke="none">
<path d="M4800 8563 c-275 -32 -484 -108 -688 -250 -83 -58 -112 -82 -208
-181 -148 -149 -257 -335 -325 -551 -12 -35 -23 -73 -25 -85 -2 -12 -8 -43
-14 -71 -16 -83 -33 -309 -34 -475 l-1 -85 -49 -13 c-81 -21 -140 -73 -181
-159 -41 -86 -55 -165 -50 -278 2 -55 5 -107 8 -115 2 -8 7 -33 12 -55 32
-167 124 -448 197 -605 74 -158 177 -318 258 -398 53 -53 126 -65 164 -26 15
14 19 11 42 -43 49 -111 168 -348 201 -401 18 -29 33 -54 33 -57 0 -3 16 -29
35 -59 19 -30 35 -59 35 -65 0 -5 4 -11 8 -13 5 -1 30 -37 56 -78 27 -41 64
-94 82 -117 19 -23 34 -45 34 -49 0 -4 7 -14 14 -23 8 -9 33 -37 56 -62 l41
-47 -1 -438 c-2 -458 -3 -479 -46 -522 -9 -9 -28 -18 -41 -20 -27 -3 -425
-142 -534 -186 -36 -14 -69 -26 -73 -26 -5 0 -142 -52 -251 -95 -11 -5 -22 -9
-25 -10 -3 -1 -22 -9 -44 -18 -21 -9 -40 -17 -42 -17 -4 0 -60 -25 -199 -88
-44 -20 -141 -67 -215 -105 -356 -183 -470 -255 -595 -381 -112 -112 -156
-181 -199 -308 -22 -66 -27 -89 -42 -178 -3 -14 -9 -47 -14 -75 -5 -27 -12
-68 -15 -90 -3 -23 -7 -50 -9 -60 -5 -26 -16 -151 -21 -248 -3 -43 -7 -112
-10 -155 -15 -243 -26 -862 -15 -862 3 0 6 -51 6 -113 1 -61 2 -133 3 -159 l1
-47 2798 2 2797 2 0 108 c0 59 2 107 5 107 7 0 4 694 -4 825 -16 296 -20 350
-41 545 -32 304 -95 504 -198 625 -123 145 -242 233 -520 386 -62 34 -365 182
-427 209 -41 18 -99 43 -128 56 -29 13 -54 24 -57 24 -2 0 -16 5 -32 12 -15 6
-30 12 -33 13 -3 1 -18 7 -34 14 -140 58 -763 282 -801 288 -46 8 -63 20 -85
64 -20 38 -21 57 -21 392 0 590 -3 530 28 563 95 103 308 429 414 634 24 47
47 87 52 88 4 2 7 8 7 14 0 5 18 49 40 97 22 47 48 103 58 124 l17 38 27 -20
c32 -25 59 -26 104 -5 95 45 266 310 367 569 52 134 129 394 144 490 3 17 8
49 12 71 13 68 3 213 -19 284 -38 125 -126 219 -220 235 l-40 7 -1 56 c-2 200
-11 333 -29 462 -32 220 -121 434 -260 626 -108 148 -316 322 -496 412 -83 42
-262 106 -324 116 -19 3 -44 7 -55 10 -91 17 -289 28 -365 19z"/>
</g>
</svg>
